<svg id="visual" viewBox="0 0 1920 1080" width="1920" height="1080" xmlns="http://www.w3.org/2000/svg" xmlns:xlink="http://www.w3.org/1999/xlink" version="1.1"><rect x="0" y="0" width="1920" height="1080" fill="#dceafc"></rect><path d="M0 408L26.7 406.3C53.3 404.7 106.7 401.3 160 387.2C213.3 373 266.7 348 320 348.3C373.3 348.7 426.7 374.3 480 378C533.3 381.7 586.7 363.3 640 375.5C693.3 387.7 746.7 430.3 800 431.2C853.3 432 906.7 391 960 367.7C1013.3 344.3 1066.7 338.7 1120 334C1173.3 329.3 1226.7 325.7 1280 341C1333.3 356.3 1386.7 390.7 1440 405.7C1493.3 420.7 1546.7 416.3 1600 400C1653.3 383.7 1706.7 355.3 1760 341.7C1813.3 328 1866.7 329 1893.3 329.5L1920 330L1920 1081L1893.3 1081C1866.7 1081 1813.3 1081 1760 1081C1706.7 1081 1653.3 1081 1600 1081C1546.7 1081 1493.3 1081 1440 1081C1386.7 1081 1333.3 1081 1280 1081C1226.7 1081 1173.3 1081 1120 1081C1066.7 1081 1013.3 1081 960 1081C906.7 1081 853.3 1081 800 1081C746.7 1081 693.3 1081 640 1081C586.7 1081 533.3 1081 480 1081C426.7 1081 373.3 1081 320 1081C266.7 1081 213.3 1081 160 1081C106.7 1081 53.3 1081 26.7 1081L0 1081Z" fill="#0d2bcd"></path><path d="M0 496L26.7 500.5C53.3 505 106.7 514 160 505.2C213.3 496.3 266.7 469.7 320 458C373.3 446.3 426.7 449.7 480 445.3C533.3 441 586.7 429 640 436.5C693.3 444 746.7 471 800 483C853.3 495 906.7 492 960 502.2C1013.3 512.3 1066.7 535.7 1120 542.5C1173.3 549.3 1226.7 539.7 1280 528.3C1333.3 517 1386.7 504 1440 501.2C1493.3 498.3 1546.7 505.7 1600 493.2C1653.3 480.7 1706.7 448.3 1760 431.5C1813.3 414.7 1866.7 413.3 1893.3 412.7L1920 412L1920 1081L1893.3 1081C1866.7 1081 1813.3 1081 1760 1081C1706.7 1081 1653.3 1081 1600 1081C1546.7 1081 1493.3 1081 1440 1081C1386.7 1081 1333.3 1081 1280 1081C1226.7 1081 1173.3 1081 1120 1081C1066.7 1081 1013.3 1081 960 1081C906.7 1081 853.3 1081 800 1081C746.7 1081 693.3 1081 640 1081C586.7 1081 533.3 1081 480 1081C426.7 1081 373.3 1081 320 1081C266.7 1081 213.3 1081 160 1081C106.7 1081 53.3 1081 26.7 1081L0 1081Z" fill="#0042d5"></path><path d="M0 598L26.7 594.8C53.3 591.7 106.7 585.3 160 592.2C213.3 599 266.7 619 320 606.8C373.3 594.7 426.7 550.3 480 530.3C533.3 510.3 586.7 514.7 640 523.3C693.3 532 746.7 545 800 553.3C853.3 561.7 906.7 565.3 960 561C1013.3 556.7 1066.7 544.3 1120 535.5C1173.3 526.7 1226.7 521.3 1280 516.3C1333.3 511.3 1386.7 506.7 1440 514.7C1493.3 522.7 1546.7 543.3 1600 548.5C1653.3 553.7 1706.7 543.3 1760 532.8C1813.3 522.3 1866.7 511.7 1893.3 506.3L1920 501L1920 1081L1893.3 1081C1866.7 1081 1813.3 1081 1760 1081C1706.7 1081 1653.3 1081 1600 1081C1546.7 1081 1493.3 1081 1440 1081C1386.7 1081 1333.3 1081 1280 1081C1226.7 1081 1173.3 1081 1120 1081C1066.7 1081 1013.3 1081 960 1081C906.7 1081 853.3 1081 800 1081C746.7 1081 693.3 1081 640 1081C586.7 1081 533.3 1081 480 1081C426.7 1081 373.3 1081 320 1081C266.7 1081 213.3 1081 160 1081C106.7 1081 53.3 1081 26.7 1081L0 1081Z" fill="#0055dc"></path><path d="M0 636L26.7 639.2C53.3 642.3 106.7 648.7 160 654.2C213.3 659.7 266.7 664.3 320 671.5C373.3 678.7 426.7 688.3 480 679C533.3 669.7 586.7 641.3 640 629.8C693.3 618.3 746.7 623.7 800 636.3C853.3 649 906.7 669 960 668.5C1013.3 668 1066.7 647 1120 629.8C1173.3 612.7 1226.7 599.3 1280 609C1333.3 618.7 1386.7 651.3 1440 662C1493.3 672.7 1546.7 661.3 1600 647.8C1653.3 634.3 1706.7 618.7 1760 612.2C1813.3 605.7 1866.7 608.3 1893.3 609.7L1920 611L1920 1081L1893.3 1081C1866.7 1081 1813.3 1081 1760 1081C1706.7 1081 1653.3 1081 1600 1081C1546.7 1081 1493.3 1081 1440 1081C1386.7 1081 1333.3 1081 1280 1081C1226.7 1081 1173.3 1081 1120 1081C1066.7 1081 1013.3 1081 960 1081C906.7 1081 853.3 1081 800 1081C746.7 1081 693.3 1081 640 1081C586.7 1081 533.3 1081 480 1081C426.7 1081 373.3 1081 320 1081C266.7 1081 213.3 1081 160 1081C106.7 1081 53.3 1081 26.7 1081L0 1081Z" fill="#0066e0"></path><path d="M0 760L26.7 751.3C53.3 742.7 106.7 725.3 160 723C213.3 720.7 266.7 733.3 320 735.5C373.3 737.7 426.7 729.3 480 732C533.3 734.7 586.7 748.3 640 757.2C693.3 766 746.7 770 800 766.8C853.3 763.7 906.7 753.3 960 743.8C1013.3 734.3 1066.7 725.7 1120 732.3C1173.3 739 1226.7 761 1280 756C1333.3 751 1386.7 719 1440 715.3C1493.3 711.7 1546.7 736.3 1600 741.5C1653.3 746.7 1706.7 732.3 1760 729.2C1813.3 726 1866.7 734 1893.3 738L1920 742L1920 1081L1893.3 1081C1866.7 1081 1813.3 1081 1760 1081C1706.7 1081 1653.3 1081 1600 1081C1546.7 1081 1493.3 1081 1440 1081C1386.7 1081 1333.3 1081 1280 1081C1226.7 1081 1173.3 1081 1120 1081C1066.7 1081 1013.3 1081 960 1081C906.7 1081 853.3 1081 800 1081C746.7 1081 693.3 1081 640 1081C586.7 1081 533.3 1081 480 1081C426.7 1081 373.3 1081 320 1081C266.7 1081 213.3 1081 160 1081C106.7 1081 53.3 1081 26.7 1081L0 1081Z" fill="#0c76e3"></path><path d="M0 767L26.7 776.2C53.3 785.3 106.7 803.7 160 809.7C213.3 815.7 266.7 809.3 320 806C373.3 802.7 426.7 802.3 480 801.5C533.3 800.7 586.7 799.3 640 804.7C693.3 810 746.7 822 800 823C853.3 824 906.7 814 960 809.8C1013.3 805.7 1066.7 807.3 1120 806.2C1173.3 805 1226.7 801 1280 802.5C1333.3 804 1386.7 811 1440 807C1493.3 803 1546.7 788 1600 787C1653.3 786 1706.7 799 1760 797.2C1813.3 795.3 1866.7 778.7 1893.3 770.3L1920 762L1920 1081L1893.3 1081C1866.7 1081 1813.3 1081 1760 1081C1706.7 1081 1653.3 1081 1600 1081C1546.7 1081 1493.3 1081 1440 1081C1386.7 1081 1333.3 1081 1280 1081C1226.7 1081 1173.3 1081 1120 1081C1066.7 1081 1013.3 1081 960 1081C906.7 1081 853.3 1081 800 1081C746.7 1081 693.3 1081 640 1081C586.7 1081 533.3 1081 480 1081C426.7 1081 373.3 1081 320 1081C266.7 1081 213.3 1081 160 1081C106.7 1081 53.3 1081 26.7 1081L0 1081Z" fill="#2885e4"></path><path d="M0 882L26.7 879.2C53.3 876.3 106.7 870.7 160 865.8C213.3 861 266.7 857 320 860.3C373.3 863.7 426.7 874.3 480 885.5C533.3 896.7 586.7 908.3 640 905.7C693.3 903 746.7 886 800 877.2C853.3 868.3 906.7 867.7 960 876.7C1013.3 885.7 1066.7 904.3 1120 902.3C1173.3 900.3 1226.7 877.7 1280 871.7C1333.3 865.7 1386.7 876.3 1440 877.2C1493.3 878 1546.7 869 1600 866.2C1653.3 863.3 1706.7 866.7 1760 868.3C1813.3 870 1866.7 870 1893.3 870L1920 870L1920 1081L1893.3 1081C1866.7 1081 1813.3 1081 1760 1081C1706.7 1081 1653.3 1081 1600 1081C1546.7 1081 1493.3 1081 1440 1081C1386.7 1081 1333.3 1081 1280 1081C1226.7 1081 1173.3 1081 1120 1081C1066.7 1081 1013.3 1081 960 1081C906.7 1081 853.3 1081 800 1081C746.7 1081 693.3 1081 640 1081C586.7 1081 533.3 1081 480 1081C426.7 1081 373.3 1081 320 1081C266.7 1081 213.3 1081 160 1081C106.7 1081 53.3 1081 26.7 1081L0 1081Z" fill="#4293e4"></path><path d="M0 948L26.7 950.5C53.3 953 106.7 958 160 965.5C213.3 973 266.7 983 320 987.8C373.3 992.7 426.7 992.3 480 993.8C533.3 995.3 586.7 998.7 640 999C693.3 999.3 746.7 996.7 800 992.8C853.3 989 906.7 984 960 976C1013.3 968 1066.7 957 1120 952.8C1173.3 948.7 1226.7 951.3 1280 960.3C1333.3 969.3 1386.7 984.7 1440 988.3C1493.3 992 1546.7 984 1600 981.5C1653.3 979 1706.7 982 1760 985C1813.3 988 1866.7 991 1893.3 992.5L1920 994L1920 1081L1893.3 1081C1866.7 1081 1813.3 1081 1760 1081C1706.7 1081 1653.3 1081 1600 1081C1546.7 1081 1493.3 1081 1440 1081C1386.7 1081 1333.3 1081 1280 1081C1226.7 1081 1173.3 1081 1120 1081C1066.7 1081 1013.3 1081 960 1081C906.7 1081 853.3 1081 800 1081C746.7 1081 693.3 1081 640 1081C586.7 1081 533.3 1081 480 1081C426.7 1081 373.3 1081 320 1081C266.7 1081 213.3 1081 160 1081C106.7 1081 53.3 1081 26.7 1081L0 1081Z" fill="#5ba1e3"></path></svg>